<svg width="276" height="47" viewBox="0 0 276 47" fill="none" xmlns="http://www.w3.org/2000/svg">
<path d="M19.1007 45.62L19.1547 45.242C22.3947 45.818 25.2747 45.548 27.7947 44.432C30.3147 43.316 32.2947 41.75 33.7347 39.734C35.1747 37.682 36.3627 35.27 37.2987 32.498C38.2347 29.69 38.8647 27.08 39.1887 24.668C39.5127 22.256 39.6747 19.934 39.6747 17.702C39.6747 14.066 39.1527 11.33 38.1087 9.494C37.0647 7.658 35.3727 6.74 33.0327 6.74C31.4847 6.74 30.3147 7.262 29.5227 8.306C28.7667 9.35 28.1727 11.348 27.7407 14.3L23.0967 44H6.6807L6.7347 43.622C7.6707 43.622 8.4807 43.55 9.1647 43.406C9.8487 43.262 10.4247 42.992 10.8927 42.596C11.3967 42.164 11.7927 41.75 12.0807 41.354C12.3687 40.958 12.6387 40.328 12.8907 39.464C13.1427 38.6 13.3227 37.844 13.4307 37.196C13.5387 36.548 13.7007 35.576 13.9167 34.28L16.7247 15.92C16.9767 14.228 17.5887 12.788 18.5607 11.6C19.5687 10.376 20.7747 9.458 22.1787 8.846C23.6187 8.234 24.9507 7.802 26.1747 7.55C27.4347 7.262 28.6947 7.082 29.9547 7.01V6.956C27.6867 6.956 24.4467 6.074 20.2347 4.31C16.0587 2.546 12.8547 1.664 10.6227 1.664C8.8947 1.664 7.5087 2.024 6.4647 2.744C5.4207 3.464 4.8987 4.508 4.8987 5.876C4.8987 7.028 5.2407 7.892 5.9247 8.468C6.6447 9.008 7.4907 9.278 8.4627 9.278C10.0827 9.278 11.4507 8.558 12.5667 7.118C14.0787 7.802 15.0327 8.774 15.4287 10.034C15.8607 11.258 15.8067 12.446 15.2667 13.598C14.7627 14.75 13.8807 15.758 12.6207 16.622C11.3607 17.486 9.9747 17.918 8.4627 17.918C6.3747 17.918 4.5207 17.198 2.9007 15.758C1.2807 14.282 0.470703 12.41 0.470703 10.142C0.470703 7.622 1.4067 5.498 3.2787 3.77C5.1867 2.042 7.5807 1.178 10.4607 1.178C12.7647 1.178 16.1127 2.078 20.5047 3.878C24.9327 5.678 28.1907 6.578 30.2787 6.578C30.8187 6.578 31.2327 6.452 31.5207 6.2C31.8447 5.912 32.0067 5.588 32.0067 5.228C32.0067 4.724 31.7907 4.364 31.3587 4.148C30.9267 3.932 30.3327 4.022 29.5767 4.418C29.0007 3.302 29.0007 2.33 29.5767 1.502C30.1887 0.637997 31.0167 0.205997 32.0607 0.205997C32.8887 0.205997 33.5907 0.457997 34.1667 0.961997C34.7427 1.43 35.0307 2.15 35.0307 3.122C35.0307 4.67 33.9687 5.786 31.8447 6.47C32.7087 6.362 33.5547 6.308 34.3827 6.308C36.4347 6.308 38.3787 6.632 40.2147 7.28C42.0867 7.892 43.7967 8.828 45.3447 10.088C46.9287 11.348 48.1707 13.094 49.0707 15.326C50.0067 17.522 50.4747 20.06 50.4747 22.94C50.4747 24.596 50.3307 26.288 50.0427 28.016C49.7547 29.744 49.2507 31.526 48.5307 33.362C47.8107 35.198 46.9107 36.926 45.8307 38.546C44.7507 40.13 43.3647 41.57 41.6727 42.866C40.0167 44.162 38.1267 45.17 36.0027 45.89C33.9147 46.61 31.4127 46.97 28.4967 46.97C25.6167 46.97 22.4847 46.52 19.1007 45.62ZM69.5426 15.272C73.3946 15.272 76.5446 16.406 78.9926 18.674C81.4406 20.942 82.6646 23.858 82.6646 27.422C82.6646 31.922 80.9006 35.882 77.3726 39.302C73.8806 42.686 69.7406 44.378 64.9526 44.378C61.1006 44.378 57.9506 43.244 55.5026 40.976C53.0906 38.672 51.8846 35.738 51.8846 32.174C51.8846 27.566 53.6126 23.606 57.0686 20.294C60.5246 16.946 64.6826 15.272 69.5426 15.272ZM65.0066 43.946C66.4106 43.766 67.6346 42.812 68.6786 41.084C69.7586 39.32 70.5686 37.196 71.1086 34.712C71.6846 32.192 72.0986 29.798 72.3506 27.53C72.6026 25.226 72.7286 23.156 72.7286 21.32C72.7286 17.576 71.6486 15.704 69.4886 15.704C68.1206 15.704 66.8966 16.604 65.8166 18.404C64.7366 20.204 63.9266 22.418 63.3866 25.046C62.8466 27.638 62.4326 30.104 62.1446 32.444C61.8926 34.748 61.7666 36.728 61.7666 38.384C61.7666 42.092 62.8466 43.946 65.0066 43.946ZM114.172 23.75L112.174 35.738C111.742 38.042 111.616 39.734 111.796 40.814C112.012 41.858 112.678 42.38 113.794 42.38C115.414 42.38 117.322 41.552 119.518 39.896C121.75 38.204 123.694 36.08 125.35 33.524C127.042 30.968 127.888 28.592 127.888 26.396C127.888 25.208 127.6 24.272 127.024 23.588C126.448 22.868 125.638 22.508 124.594 22.508C122.758 22.508 121.498 23.3 120.814 24.884C119.482 24.812 118.456 24.416 117.736 23.696C117.052 22.94 116.71 21.968 116.71 20.78C116.71 19.016 117.286 17.594 118.438 16.514C119.59 15.398 120.958 14.84 122.542 14.84C124.342 14.84 125.89 15.56 127.186 17C128.518 18.44 129.184 20.528 129.184 23.264C129.184 26.9 128.158 30.374 126.106 33.686C124.09 36.962 121.516 39.572 118.384 41.516C115.252 43.424 112.084 44.378 108.88 44.378C106.36 44.378 104.524 43.712 103.372 42.38C102.22 41.012 101.95 39.032 102.562 36.44L104.668 27.368L104.452 27.314C103.264 31.886 102.04 35.414 100.78 37.898C99.5199 40.382 98.2059 42.092 96.8379 43.028C95.4699 43.928 93.7779 44.378 91.7619 44.378C89.9979 44.378 88.5759 44.072 87.4959 43.46C86.4159 42.848 85.7139 42.074 85.3899 41.138C85.1019 40.202 84.9219 39.194 84.8499 38.114C84.7779 37.034 84.8679 36.026 85.1199 35.09L87.7659 18.944C87.8379 18.368 87.6579 17.936 87.2259 17.648C86.8299 17.36 86.2719 17.324 85.5519 17.54L85.3899 17.378C86.4699 16.874 87.8199 16.406 89.4399 15.974C91.0599 15.506 92.4639 15.272 93.6519 15.272C95.2359 15.272 96.2979 15.632 96.8379 16.352C97.3779 17.036 97.5039 18.278 97.2159 20.078L94.4079 37.358C93.9399 40.094 94.5159 41.462 96.1359 41.462C97.6479 41.462 98.9799 40.256 100.132 37.844C101.32 35.396 102.562 31.85 103.858 27.206C104.254 25.694 104.596 24.2 104.884 22.724C105.172 21.212 105.316 19.718 105.316 18.242C105.316 16.766 105.028 15.884 104.452 15.596L104.614 15.434C107.062 15.254 109.078 15.254 110.662 15.434C112.282 15.578 113.38 16.298 113.956 17.594C114.568 18.89 114.64 20.942 114.172 23.75ZM130.474 35.954L133.498 18.944C133.57 18.368 133.39 17.936 132.958 17.648C132.562 17.36 132.004 17.324 131.284 17.54L131.122 17.378C132.202 16.874 133.552 16.406 135.172 15.974C136.792 15.506 138.196 15.272 139.384 15.272C140.968 15.272 142.048 15.632 142.624 16.352C143.2 17.036 143.308 18.278 142.948 20.078L139.978 32.282L140.194 32.336C143.182 20.96 147.808 15.272 154.072 15.272C155.368 15.272 156.448 15.488 157.312 15.92C158.176 16.352 158.788 16.874 159.148 17.486C159.544 18.062 159.796 18.8 159.904 19.7C160.048 20.6 160.084 21.41 160.012 22.13C159.976 22.85 159.886 23.66 159.742 24.56L158.446 32.228C157.222 39.212 157.582 43.082 159.526 43.838L159.364 44C157.996 44.288 156.682 44.432 155.422 44.432C149.734 44.432 147.358 41.516 148.294 35.684L150.454 22.292C150.67 21.032 150.724 20.042 150.616 19.322C150.508 18.566 150.148 18.188 149.536 18.188C148.024 18.188 146.44 19.556 144.784 22.292C143.128 24.992 141.796 28.376 140.788 32.444C139.096 39.392 138.898 43.19 140.194 43.838L140.032 44C138.196 44.288 136.684 44.432 135.496 44.432C133.228 44.432 131.68 43.82 130.852 42.596C130.024 41.336 129.898 39.122 130.474 35.954ZM162.52 35.954L167.488 5.012C167.56 4.436 167.38 4.004 166.948 3.716C166.552 3.428 165.994 3.392 165.274 3.608L165.112 3.446C166.192 2.942 167.542 2.474 169.162 2.042C170.782 1.574 172.186 1.34 173.374 1.34C174.958 1.34 176.02 1.7 176.56 2.42C177.1 3.104 177.226 4.346 176.938 6.146L172.726 32.498C172.438 34.154 172.24 35.306 172.132 35.954C172.06 36.602 171.934 37.682 171.754 39.194C171.61 40.706 171.61 41.858 171.754 42.65C171.898 43.406 172.186 43.892 172.618 44.108L172.456 44.27C171.664 44.306 170.764 44.36 169.756 44.432C168.784 44.54 167.812 44.432 166.84 44.108C165.868 43.784 165.004 43.352 164.248 42.812C163.492 42.272 162.934 41.408 162.574 40.22C162.25 39.032 162.232 37.61 162.52 35.954ZM194.734 15.272C198.586 15.272 201.736 16.406 204.184 18.674C206.632 20.942 207.856 23.858 207.856 27.422C207.856 31.922 206.092 35.882 202.564 39.302C199.072 42.686 194.932 44.378 190.144 44.378C186.292 44.378 183.142 43.244 180.694 40.976C178.282 38.672 177.076 35.738 177.076 32.174C177.076 27.566 178.804 23.606 182.26 20.294C185.716 16.946 189.874 15.272 194.734 15.272ZM190.198 43.946C191.602 43.766 192.826 42.812 193.87 41.084C194.95 39.32 195.76 37.196 196.3 34.712C196.876 32.192 197.29 29.798 197.542 27.53C197.794 25.226 197.92 23.156 197.92 21.32C197.92 17.576 196.84 15.704 194.68 15.704C193.312 15.704 192.088 16.604 191.008 18.404C189.928 20.204 189.118 22.418 188.578 25.046C188.038 27.638 187.624 30.104 187.336 32.444C187.084 34.748 186.958 36.728 186.958 38.384C186.958 42.092 188.038 43.946 190.198 43.946ZM228.023 15.704C226.619 15.704 225.233 16.892 223.865 19.268C222.533 21.608 221.471 24.434 220.679 27.746C219.923 31.058 219.545 34.208 219.545 37.196C219.545 40.04 220.175 41.462 221.435 41.462C223.019 41.462 224.603 39.788 226.187 36.44C227.771 33.092 228.941 29.312 229.697 25.1L230.291 21.806C230.723 19.61 230.777 18.044 230.453 17.108C230.129 16.172 229.319 15.704 228.023 15.704ZM240.875 15.488L238.013 32.228C236.789 39.212 237.149 43.082 239.093 43.838L238.931 44C237.779 44.252 236.501 44.378 235.097 44.378C232.469 44.378 230.453 43.712 229.049 42.38C227.645 41.012 227.321 38.78 228.077 35.684L230.075 27.368L229.859 27.314C228.239 33.65 226.421 38.078 224.405 40.598C222.389 43.118 220.067 44.378 217.439 44.378C214.811 44.378 212.867 43.424 211.607 41.516C210.383 39.572 209.771 37.196 209.771 34.388C209.771 31.508 210.527 28.61 212.039 25.694C213.587 22.742 215.747 20.276 218.519 18.296C221.291 16.28 224.243 15.272 227.375 15.272C228.455 15.272 229.697 15.488 231.101 15.92C232.541 16.352 233.729 16.748 234.665 17.108C235.637 17.432 236.681 17.504 237.797 17.324C238.949 17.108 239.975 16.496 240.875 15.488ZM275.513 6.146L271.301 32.228C270.149 39.248 270.509 43.118 272.381 43.838L272.219 44C271.067 44.252 269.789 44.378 268.385 44.378C265.757 44.378 263.741 43.712 262.337 42.38C260.933 41.012 260.609 38.78 261.365 35.684L262.985 27.368L262.769 27.314C261.365 33.614 259.655 38.042 257.639 40.598C255.659 43.118 253.283 44.378 250.511 44.378C247.955 44.378 245.975 43.604 244.571 42.056C243.203 40.472 242.519 38.222 242.519 35.306C242.519 33.074 242.897 30.806 243.653 28.502C244.445 26.162 245.543 24.002 246.947 22.022C248.351 20.042 250.187 18.422 252.455 17.162C254.723 15.902 257.207 15.272 259.907 15.272C261.347 15.272 262.571 15.434 263.579 15.758L263.471 15.92C261.887 15.992 260.375 16.82 258.935 18.404C257.495 19.988 256.307 21.95 255.371 24.29C254.435 26.594 253.679 29.024 253.103 31.58C252.563 34.136 252.257 36.53 252.185 38.762C252.113 41.354 252.653 42.65 253.805 42.65C255.353 42.65 256.955 41.156 258.611 38.168C260.267 35.144 261.455 31.49 262.175 27.206L265.955 5.012C266.027 4.436 265.847 4.004 265.415 3.716C265.019 3.428 264.461 3.392 263.741 3.608L263.579 3.446C264.659 2.942 266.009 2.474 267.629 2.042C269.249 1.574 270.653 1.34 271.841 1.34C273.425 1.34 274.505 1.7 275.081 2.42C275.657 3.104 275.801 4.346 275.513 6.146Z" fill="white"/>
</svg>
